<svg viewBox="0 0 256 256" xmlns="http://www.w3.org/2000/svg" xmlns:xlink="http://www.w3.org/1999/xlink"><clipPath id="a"><circle cx="128" cy="128" r="128"/></clipPath><linearGradient id="b" gradientUnits="userSpaceOnUse" x1="131.1" x2="131.1" y1="171.38" y2="234.89"><stop offset="0" stop-color="#ebbeae"/><stop offset=".64" stop-color="#ffe2d9"/></linearGradient><linearGradient id="c" gradientUnits="userSpaceOnUse" x1="129.1" x2="129.1" y1="240.6" y2="100.22"><stop offset="0" stop-color="#ffebe5"/><stop offset=".01" stop-color="#ffe7e0"/><stop offset=".13" stop-color="#ffc8b9"/><stop offset=".24" stop-color="#ffaf9a"/><stop offset=".35" stop-color="#ff9d85"/><stop offset=".46" stop-color="#ff9377"/><stop offset=".55" stop-color="#ff8f73"/></linearGradient><circle cx="128" cy="128" fill="#ff5630" r="128"/><g clip-path="url(#a)"><path d="m165.82 193.56-34.09-2-34.1 1.76a46.44 46.44 0 0 0 -23.49 7.82l-31.77 21.34-.36.33a128 128 0 0 0 174.74-2.57l-27.48-18.7a46.44 46.44 0 0 0 -23.45-7.98z" fill="#bf2600"/><path d="m194.5 213.41c-4.65-21.12-3.54-37.28-1.65-48.17 2.34-13.47 8.45-33.72 2.78-43.42a42.5 42.5 0 0 1 -5.63-14.32 40.24 40.24 0 0 1 -.63-5.12l-121.59-5.92a52.75 52.75 0 0 0 -6.78 16.75 54.64 54.64 0 0 0 .25 23.1c6.34 30.92-11 54.34.46 86.58a74.52 74.52 0 0 0 11.44 20.77 128.19 128.19 0 0 0 116.59-3.5 58.17 58.17 0 0 0 4.76-26.75z" fill="#ff8f73"/><path d="m171.68 215.14c-1.13 1.46-17.33 21.65-44.16 20-22.36-1.39-35.11-16.92-37-19.3a29.92 29.92 0 0 0 10.39-16.67c3-14.36-6.89-25.15-8.07-26.39l73.48-2.63c-1.39 2-9.21 13.79-5.26 28.32a34.52 34.52 0 0 0 10.62 16.67z" fill="url(#b)"/><path d="m67.78 101.07 1.22 14.27c-2.22 6.81-17.47 56 11.15 94 4.37 5.8 25.35 33.66 54.26 31.06 25.63-2.3 41-26.92 43.39-30.9 5.28-8.8 7.62-18.69 12.29-38.47 2.73-11.56 4.35-18.4 4.91-27.56a113 113 0 0 0 -6-43.28z" fill="url(#c)"/><path d="m80 94.28 1 11a145.18 145.18 0 0 0 1 41.37c2 11.85 10.25 24.53 16.29 33.94 1.89 2.94 10.26 22.66 33.39 21.1 19-1.28 26.23-15.1 29.51-20.17a77.67 77.67 0 0 0 13.62-33.29 163.28 163.28 0 0 0 -.85-54.6z" fill="#a46c35"/><path d="m82.3 95.23c9.14-10.62 22.16-14.8 25.87-16 1.75-.56 30.57-9.37 49.81 5.45 8.24 6.35 9.14 12.74 24.92 26.21 4 3.45 7.55 6.08 10 7.81a56 56 0 0 0 2.43-25c-3.77-27.34-29-48.4-54.59-53.93a68.36 68.36 0 0 0 -39.74 3.35c-25.85 10.76-35 34.53-36.3 38.12-8.77 24-.48 44.62 1.46 49.15.56-2.82 1.45-6.87 2.85-11.69 1.72-5.9 2.76-9.39 5-13.31.68-1.23 3.51-4.61 8.29-10.16z" fill="#ff8f73"/><path d="m186.45 123.82q-.14 1.13-.34 2.26c-2.65 15.43-20.39 63-58.85 63-29.73 0-54.84-42.74-57-65.24-.83-8.59-2.53-26.38 8.45-43.54 9.78-15.28 29.08-29.21 52-27.6 24.29 1.7 38.42 19.81 42 24.42 10.04 12.8 15.79 30.38 13.74 46.7z" fill="#ac8457"/><path d="m110.07 83.29c21.28-6.14 39.53 2.08 45.13 4.94a74.48 74.48 0 0 1 19.93 15.47 85.91 85.91 0 0 1 11.67 15.35 50.79 50.79 0 0 0 2.2-22.65c-3.42-24.77-26.25-43.85-49.46-48.86a61.94 61.94 0 0 0 -36 3c-3.1 1.29-24.35 10.56-32.87 34.55a59.63 59.63 0 0 0 -1.67 33.62 74.87 74.87 0 0 1 11.52-16.15c4.75-5.05 14.15-14.82 29.55-19.27z" fill="#ff7452"/></g><g fill="#dfe1e5"><path d="m99.77 140.54a23.31 23.31 0 1 1 23.31-23.31 23.34 23.34 0 0 1 -23.31 23.31zm0-43.63a20.31 20.31 0 1 0 20.31 20.31 20.34 20.34 0 0 0 -20.31-20.31z"/><path d="m153.91 140.54a23.31 23.31 0 1 1 23.31-23.31 23.34 23.34 0 0 1 -23.31 23.31zm0-43.63a20.31 20.31 0 1 0 20.31 20.31 20.34 20.34 0 0 0 -20.31-20.31z"/><path d="m78 119.67h-9.33a1.5 1.5 0 0 1 0-3h9.33a1.5 1.5 0 0 1 0 3z"/><path d="m186.74 118.72h-11a1.5 1.5 0 0 1 0-3h11a1.5 1.5 0 0 1 0 3z"/><path d="m121.59 115.72h10.51v3h-10.51z"/></g><circle cx="128" cy="128" fill="none" r="128"/></svg>